<svg width="16" height="16" viewBox="0 0 16 16" fill="none" xmlns="http://www.w3.org/2000/svg">
<rect width="16" height="16" rx="2" fill="#228ED1"/>
<path d="M11.7505 7.4681C11.7505 8.45408 11.4012 9.36489 10.8129 10.1038L13.7803 12.8255C14.0732 13.094 14.0732 13.5301 13.7803 13.7986C13.4873 14.0671 13.0115 14.0671 12.7185 13.7986L9.75116 11.0769C8.94487 11.6161 7.95107 11.9362 6.87524 11.9362C4.18214 11.9362 2 9.93629 2 7.4681C2 4.9999 4.18214 3 6.87524 3C9.56834 3 11.7505 4.9999 11.7505 7.4681ZM6.87524 10.5614C8.73861 10.5614 10.2504 9.17585 10.2504 7.4681C10.2504 5.76034 8.73861 4.3748 6.87524 4.3748C5.01187 4.3748 3.50007 5.76034 3.50007 7.4681C3.50007 9.17585 5.01187 10.5614 6.87524 10.5614Z" fill="white"/>
</svg>
