<svg width="16" height="16" viewBox="0 0 16 16" fill="none" xmlns="http://www.w3.org/2000/svg">
<rect width="16" height="16" rx="2" fill="#D12222"/>
<path d="M5.66161 2.45625L5.42857 3H2.85714C2.38304 3 2 3.29792 2 3.66667C2 4.03542 2.38304 4.33333 2.85714 4.33333H13.1429C13.617 4.33333 14 4.03542 14 3.66667C14 3.29792 13.617 3 13.1429 3H10.5714L10.3384 2.45625C10.2205 2.18333 9.89375 2 9.52411 2H6.47589C6.10625 2 5.77946 2.18333 5.66161 2.45625ZM13.1429 5.33333H2.85714L3.42232 12.0646C3.46518 12.5917 4.02768 13 4.70536 13H11.2946C11.9723 13 12.5348 12.5917 12.5777 12.0646L13.1429 5.33333Z" fill="white"/>
</svg>
