<svg width="16" height="16" viewBox="0 0 16 16" fill="none" xmlns="http://www.w3.org/2000/svg">
<rect width="16" height="16" rx="2" fill="#3FD122"/>
<path d="M2.85259 9.60008C2.94869 9.28645 3.12917 9.00075 3.3823 8.76875L7.62938 4.87634L8.42395 4.14813C8.81303 4.50472 9.62635 5.25012 10.8616 6.38218L11.6561 7.1104L10.8616 7.83861L6.61449 11.731C6.3637 11.9609 6.04962 12.1284 5.70741 12.2165L2.71196 12.9812C2.51742 13.0306 2.30647 12.9812 2.16349 12.848C2.02052 12.7149 1.96661 12.5237 2.02052 12.3454L2.85259 9.60008ZM4.15578 9.5206C4.05265 9.62156 3.97764 9.744 3.9378 9.87719L3.37293 11.7439L5.40974 11.2262C5.55975 11.1875 5.69569 11.1167 5.8082 11.0178L4.15343 9.5206H4.15578ZM12.4531 6.38218C12.064 6.02559 11.2506 5.28019 10.0154 4.14813L9.21852 3.41991C9.83964 2.85066 10.1889 2.53059 10.2709 2.4554C10.5873 2.16326 11.0186 2 11.4686 2C11.9187 2 12.3499 2.16326 12.6663 2.4554L13.5031 3.22228C13.8219 3.51443 14 3.90969 14 4.31998C14 4.73027 13.8219 5.12767 13.5031 5.41767C13.4211 5.49286 13.0718 5.81293 12.4507 6.38218H12.4531Z" fill="white"/>
</svg>
